<?xml version="1.0" standalone="no"?>
<!DOCTYPE svg PUBLIC "-//W3C//DTD SVG 20010904//EN"
 "http://www.w3.org/TR/2001/REC-SVG-20010904/DTD/svg10.dtd">
<svg version="1.0" xmlns="http://www.w3.org/2000/svg"
 width="333.000000pt" height="299.000000pt" viewBox="0 0 333.000000 299.000000"
 preserveAspectRatio="xMidYMid meet">

<g transform="translate(0.000000,299.000000) scale(0.100000,-0.100000)"
fill="#000000" stroke="none">
<path d="M321 2876 c-9 -11 -3 -41 30 -138 62 -185 119 -289 204 -373 39 -38
81 -86 93 -106 33 -55 114 -125 179 -156 32 -16 60 -30 63 -33 4 -4 38 -8 100
-12 8 -1 26 0 40 1 44 3 0 21 -51 21 -80 0 -189 47 -260 112 -27 25 -79 91
-79 101 0 3 24 -5 54 -18 29 -13 71 -26 92 -29 32 -5 22 2 -55 39 -157 76
-220 135 -289 270 -20 40 -92 249 -92 267 0 5 30 -17 66 -51 78 -72 127 -102
214 -132 56 -19 95 -23 290 -29 185 -6 236 -11 287 -28 130 -42 187 -98 288
-284 l47 -88 -49 0 c-27 0 -56 -6 -65 -12 -11 -10 -61 -263 -187 -948 -94
-514 -171 -945 -171 -956 0 -13 8 -24 20 -27 14 -3 20 -14 20 -31 l0 -26 194
0 195 0 3 28 3 27 178 3 177 2 0 -30 0 -30 198 2 197 3 3 26 c2 17 11 29 23
32 15 4 19 11 15 24 -3 10 -42 218 -86 463 -45 245 -90 492 -101 550 l-19 106
83 189 c51 118 88 190 97 191 8 1 23 2 33 2 34 3 77 57 77 97 0 23 9 48 24 68
24 31 49 101 39 110 -2 3 13 11 34 17 111 36 226 119 257 185 9 19 22 63 28
97 6 35 24 83 40 110 16 26 38 73 50 105 26 76 79 276 73 281 -2 2 -19 -5 -37
-16 -79 -48 -213 -91 -448 -142 -120 -27 -252 -70 -332 -111 -141 -71 -287
-199 -367 -322 l-43 -67 -53 0 -53 0 -62 108 c-81 142 -122 197 -176 235 -104
73 -217 97 -464 97 -255 0 -320 23 -475 170 -41 39 -76 70 -78 70 -3 0 -10 -6
-16 -14z m2564 -130 c-66 -252 -152 -375 -317 -455 -54 -26 -75 -40 -59 -41
41 0 146 58 199 110 l52 51 -6 -33 c-18 -96 -75 -165 -184 -222 -66 -34 -165
-65 -176 -54 -3 4 0 16 6 28 13 23 7 50 -10 50 -6 0 -20 -21 -31 -46 -11 -25
-27 -48 -35 -51 -7 -3 -11 -9 -8 -15 3 -5 3 -20 0 -34 -5 -20 -13 -24 -42 -24
-46 0 -104 -54 -104 -95 0 -25 -3 -27 -29 -22 -15 3 -51 9 -79 13 -29 3 -55
12 -60 18 -5 6 -19 67 -31 136 -13 69 -28 131 -33 138 -7 8 -42 12 -109 12
-55 0 -99 3 -99 6 0 17 95 136 151 190 163 155 287 210 693 308 143 34 292 92
318 123 6 7 12 12 14 10 2 -2 -8 -47 -21 -101z m-966 -628 c5 -29 29 -154 51
-278 23 -124 50 -269 60 -324 l18 -98 -40 -97 c-22 -53 -58 -133 -79 -179 -22
-46 -39 -85 -39 -87 0 -3 -13 -33 -28 -67 -16 -35 -41 -94 -57 -131 -16 -37
-32 -70 -37 -73 -4 -3 -8 240 -8 540 l0 545 -26 20 c-36 28 -79 27 -109 -4
l-25 -24 0 -541 0 -540 -200 0 c-131 0 -200 4 -200 10 0 9 54 304 210 1150 22
118 40 218 40 223 0 4 103 7 229 7 l230 0 10 -52z m511 -54 c0 -12 -53 -104
-60 -104 -22 0 -30 29 -16 61 8 19 18 37 22 42 9 8 54 10 54 1z m-119 -104
c10 -6 19 -15 19 -20 0 -12 -46 -36 -87 -45 -29 -6 -33 -4 -33 14 0 25 37 61
63 61 10 0 27 -5 38 -10z m13 -101 c-13 -14 -28 -19 -53 -17 -39 3 -56 28 -19
28 13 1 37 7 53 14 35 15 45 3 19 -25z m-227 10 c65 -9 82 -15 99 -36 l21 -26
-55 -126 c-30 -69 -59 -138 -65 -153 -6 -16 -14 -28 -17 -28 -3 0 -21 86 -41
190 -19 105 -32 190 -28 190 4 0 43 -5 86 -11z m-389 -11 c20 -20 14 -38 -13
-38 -18 0 -25 -5 -25 -20 0 -15 7 -20 25 -20 21 0 25 -5 25 -30 0 -23 -4 -30
-20 -30 -13 0 -20 -7 -20 -20 0 -13 7 -20 20 -20 16 0 20 -7 20 -35 0 -28 -4
-35 -20 -35 -13 0 -20 -7 -20 -20 0 -13 7 -20 20 -20 16 0 20 -7 20 -35 0 -28
-4 -35 -20 -35 -13 0 -20 -7 -20 -20 0 -13 7 -20 20 -20 16 0 20 -7 20 -35 0
-31 -3 -35 -25 -35 -18 0 -25 -5 -25 -20 0 -15 7 -20 25 -20 22 0 25 -4 25
-35 0 -28 -4 -35 -20 -35 -13 0 -20 -7 -20 -20 0 -13 7 -20 20 -20 16 0 20 -7
20 -35 0 -28 -4 -35 -20 -35 -13 0 -20 -7 -20 -20 0 -13 7 -20 20 -20 16 0 20
-7 20 -35 0 -28 -4 -35 -20 -35 -13 0 -20 -7 -20 -20 0 -13 7 -20 20 -20 16 0
20 -7 20 -35 0 -31 -3 -35 -25 -35 -18 0 -25 -5 -25 -20 0 -15 7 -20 25 -20
22 0 25 -4 25 -35 0 -28 -4 -35 -20 -35 -13 0 -20 -7 -20 -20 0 -13 7 -20 20
-20 11 0 20 -4 20 -10 0 -5 -18 -10 -40 -10 l-40 0 0 533 c0 551 0 557 40 557
9 0 21 -5 28 -12z m370 -603 c6 -33 27 -147 46 -253 20 -106 36 -199 36 -207
0 -13 -28 -15 -170 -15 -93 0 -170 2 -170 5 0 3 30 74 66 158 36 83 89 205
116 270 28 65 54 115 58 110 4 -4 12 -35 18 -68z m133 -725 c21 -113 39 -208
39 -212 0 -5 -257 -8 -571 -8 -538 0 -570 1 -566 18 3 9 20 100 38 201 18 101
39 189 46 196 9 10 122 12 494 11 l482 -1 38 -205z m-751 -270 c0 -6 -58 -10
-155 -10 -97 0 -155 4 -155 10 0 6 58 10 155 10 97 0 155 -4 155 -10z m750 0
c0 -6 -58 -10 -155 -10 -97 0 -155 4 -155 10 0 6 58 10 155 10 97 0 155 -4
155 -10z"/>
<path d="M1660 603 c-63 -23 -82 -104 -34 -142 36 -28 85 -27 113 3 40 42 29
105 -23 130 -19 9 -36 16 -38 15 -1 0 -10 -3 -18 -6z m58 -80 c3 -28 -1 -33
-23 -39 -36 -9 -60 15 -51 51 6 22 11 26 39 23 28 -3 32 -7 35 -35z"/>
<path d="M900 2043 c0 -21 63 -113 96 -143 49 -42 95 -61 153 -61 66 -1 148
37 127 58 -3 4 -22 -1 -42 -11 -60 -28 -115 -31 -165 -9 -52 24 -113 83 -140
136 -18 35 -29 46 -29 30z"/>
</g>
</svg>
